<?xml version="1.0" encoding="UTF-8" standalone="no"?>
<!-- Created with Inkscape (http://www.inkscape.org/) -->

<svg
   xmlns:dc="http://purl.org/dc/elements/1.1/"
   xmlns:cc="http://creativecommons.org/ns#"
   xmlns:rdf="http://www.w3.org/1999/02/22-rdf-syntax-ns#"
   xmlns:svg="http://www.w3.org/2000/svg"
   xmlns="http://www.w3.org/2000/svg"
   xmlns:sodipodi="http://sodipodi.sourceforge.net/DTD/sodipodi-0.dtd"
   xmlns:inkscape="http://www.inkscape.org/namespaces/inkscape"
   width="32"
   height="32"
   viewBox="0 0 8.466667 8.466667"
   version="1.1"
   id="svg8"
   inkscape:version="0.92.1 r15371"
   sodipodi:docname="32x32.svg">
  <defs
     id="defs2" />
  <sodipodi:namedview
     id="base"
     pagecolor="#ffffff"
     bordercolor="#666666"
     borderopacity="1.0"
     inkscape:pageopacity="0.0"
     inkscape:pageshadow="2"
     inkscape:zoom="18.356287"
     inkscape:cx="9.2404626"
     inkscape:cy="27.64504"
     inkscape:document-units="mm"
     inkscape:current-layer="layer1"
     showgrid="false"
     units="px"
     showguides="true"
     inkscape:guide-bbox="true"
     inkscape:window-width="1920"
     inkscape:window-height="1016"
     inkscape:window-x="0"
     inkscape:window-y="27"
     inkscape:window-maximized="1">
    <sodipodi:guide
       position="183.3464,-0.017817988"
       orientation="0,1"
       id="guide4686"
       inkscape:locked="false" />
    <sodipodi:guide
       position="0.86494529,168.80426"
       orientation="1,0"
       id="guide4688"
       inkscape:locked="false" />
    <sodipodi:guide
       position="274.716,176.98939"
       orientation="1,0"
       id="guide4702"
       inkscape:locked="false" />
    <sodipodi:guide
       position="97.309155,274.88354"
       orientation="0,1"
       id="guide4704"
       inkscape:locked="false" />
  </sodipodi:namedview>
  <metadata
     id="metadata5">
    <rdf:RDF>
      <cc:Work
         rdf:about="">
        <dc:format>image/svg+xml</dc:format>
        <dc:type
           rdf:resource="http://purl.org/dc/dcmitype/StillImage" />
        <dc:title></dc:title>
      </cc:Work>
    </rdf:RDF>
  </metadata>
  <g
     inkscape:label="Layer 1"
     inkscape:groupmode="layer"
     id="layer1"
     transform="translate(-3.2510054,-289.70614)">
    <g
       id="g4774"
       transform="matrix(0.03011532,0,0,0.03011532,3.2487369,289.09907)"
       style="stroke-width:33.20568848">
      <path
         inkscape:connector-curvature="0"
         id="rect4517"
         d="m 201.02625,28.834387 71.70665,73.177973 c 6.18728,6.31414 7.08804,15.39573 2.01972,20.36222 l -77.71951,76.1583 c -5.0683,4.96648 -14.1296,3.88152 -20.31683,-2.43266 l -71.70664,-73.17798 c -6.18719,-6.31419 -7.08802,-15.39572 -2.01972,-20.36221 l 77.71951,-76.158303 c 5.06831,-4.9665 14.1296,-3.88152 20.31682,2.43266 z"
         style="opacity:1;vector-effect:none;fill:#5bda81;fill-opacity:1;fill-rule:nonzero;stroke:none;stroke-width:175.71342468;stroke-linecap:round;stroke-linejoin:round;stroke-miterlimit:4;stroke-dasharray:none;stroke-dashoffset:0;stroke-opacity:1;paint-order:fill markers stroke" />
      <path
         transform="matrix(0.69989426,0.71424647,-0.71424845,0.69989224,0,0)"
         style="opacity:1;vector-effect:none;fill:#fff100;fill-opacity:1;fill-rule:nonzero;stroke:none;stroke-width:175.7134552;stroke-linecap:round;stroke-linejoin:round;stroke-miterlimit:4;stroke-dasharray:none;stroke-dashoffset:0;stroke-opacity:1;paint-order:fill markers stroke"
         d="M 90.611116,-54.431698 H 202.11772 c 6.33032,0 11.42657,5.518425 11.42657,12.373149 V 67.535989 c 0,6.854724 -5.09625,12.373149 -11.42657,12.373149 H 90.611116 c -6.330319,0 -11.426569,-5.518425 -11.426569,-12.373149 V -42.058549 c 0,-6.854724 5.09625,-12.373149 11.426569,-12.373149 z"
         id="rect4513"
         inkscape:connector-curvature="0" />
      <path
         transform="matrix(0.69989426,0.71424647,-0.71424846,0.69989224,0,0)"
         style="opacity:1;vector-effect:none;fill:#63c3eb;fill-opacity:1;fill-rule:nonzero;stroke:none;stroke-width:175.71342468;stroke-linecap:round;stroke-linejoin:round;stroke-miterlimit:4;stroke-dasharray:none;stroke-dashoffset:0;stroke-opacity:1;paint-order:fill markers stroke"
         d="m 158.48715,11.495033 h 111.5066 c 6.33032,0 11.42657,5.518425 11.42657,12.373149 V 133.46272 c 0,6.85472 -5.09625,12.37315 -11.42657,12.37315 h -111.5066 c -6.33032,0 -11.42657,-5.51843 -11.42657,-12.37315 V 23.868182 c 0,-6.854724 5.09625,-12.373149 11.42657,-12.373149 z"
         id="rect4548"
         inkscape:connector-curvature="0" />
      <path
         transform="matrix(0.69989027,0.71425039,-0.71424454,0.69989624,0,0)"
         style="opacity:1;vector-effect:none;fill:#d33751;fill-opacity:1;fill-rule:nonzero;stroke:none;stroke-width:175.7134552;stroke-linecap:round;stroke-linejoin:round;stroke-miterlimit:4;stroke-dasharray:none;stroke-dashoffset:0;stroke-opacity:1;paint-order:fill markers stroke"
         d="m 227.37771,-55.820644 h 106.24705 c 7.78108,0 14.04527,5.020519 14.04527,11.256769 V 67.315454 c 0,6.236251 -6.26419,11.25677 -14.04527,11.25677 H 227.37771 c -7.78108,0 -14.04527,-5.020519 -14.04527,-11.25677 V -44.563875 c 0,-6.23625 6.26419,-11.256769 14.04527,-11.256769 z"
         id="rect4546"
         inkscape:connector-curvature="0" />
      <path
         sodipodi:nodetypes="cccscccc"
         inkscape:connector-curvature="0"
         id="path4706"
         d="m 185.82793,116.89521 -4.06383,3.65973 -40.67194,39.87508 35.28519,36.00917 c 5.87979,6.00044 9.89324,12.04497 20.65558,2.09393 l 39.21931,-38.43124 -40.91998,-42.95293 z"
         style="opacity:1;vector-effect:none;fill:#5bda81;fill-opacity:1;fill-rule:nonzero;stroke:none;stroke-width:175.71342468;stroke-linecap:round;stroke-linejoin:round;stroke-miterlimit:4;stroke-dasharray:none;stroke-dashoffset:0;stroke-opacity:1;paint-order:fill markers stroke" />
    </g>
  </g>
</svg>
